<?xml version="1.0" standalone="no"?>
<!DOCTYPE svg PUBLIC "-//W3C//DTD SVG 1.1//EN" "http://www.w3.org/Graphics/SVG/1.1/DTD/svg11.dtd" >
<svg xmlns="http://www.w3.org/2000/svg" xmlns:xlink="http://www.w3.org/1999/xlink" version="1.1" viewBox="-11 0 1191 1024">
  <g transform="matrix(1 0 0 -1 0 960)">
   <path fill="currentColor"
d="M636 551l474 399q11 10 26.5 9t24.5 -13q5 -5 7 -11t2 -13v-948q0 -16 -10.5 -26.5t-26.5 -10.5q-6 0 -12 2t-11 7l-474 399v-371q0 -16 -10.5 -26.5t-25.5 -10.5q-7 0 -13 2.5t-11 6.5l-563 474q-12 10 -13 25t9 27l2 2l2 2l563 474q12 10 27 9t25 -13q4 -5 6 -11t2 -13
v-371v0z" />
  </g>

</svg>
