<?xml version="1.0" standalone="no"?>
<!DOCTYPE svg PUBLIC "-//W3C//DTD SVG 1.1//EN" "http://www.w3.org/Graphics/SVG/1.1/DTD/svg11.dtd" >
<svg xmlns="http://www.w3.org/2000/svg" xmlns:xlink="http://www.w3.org/1999/xlink" version="1.1" viewBox="-10 0 1043 1024">
  <g transform="matrix(1 0 0 -1 0 960)">
   <path fill="#ffffff"
d="M512 -63q-106 0 -199 40q-93 41 -162 110t-110 162q-40 93 -40 199t40 199q41 93 110 162t162 110q93 40 199 40t199 -40q93 -41 162 -110t110 -162q40 -93 40 -199t-40 -199q-41 -93 -110 -162t-162 -110q-93 -40 -199 -40v0zM512 901q-94 0 -176 -36
q-83 -35 -144.5 -96.5t-96.5 -144.5q-36 -82 -36 -176t36 -176q35 -83 96.5 -144.5t144.5 -96.5q82 -36 176 -36t176 36q83 35 144.5 96.5t96.5 144.5q36 82 36 176t-36 176q-35 83 -96.5 144.5t-144.5 96.5q-82 36 -176 36v0zM512 303q-60 0 -102.5 42.5t-42.5 102.5
t42.5 102.5t102.5 42.5t102.5 -42.5t42.5 -102.5t-42.5 -102.5t-102.5 -42.5zM512 535q-36 0 -61.5 -25.5t-25.5 -61.5t25.5 -61.5t61.5 -25.5t61.5 25.5t25.5 61.5t-25.5 61.5t-61.5 25.5zM482 124q1 0 2 -0.5t2 -1.5l13 -13q-5 -7 -11 -11.5t-13 -7.5t-15.5 -4.5
t-18.5 -1.5q-8 0 -16 1.5t-15 4.5t-13.5 7t-10.5 10q-5 5 -9 11.5t-7 13.5q-2 8 -3.5 16t-1.5 17q0 5 0.5 11t2.5 11q1 5 3 10t4 9q2 5 5 9t7 8q3 3 7 6l8 6q5 2 9.5 4t9.5 3q6 2 11.5 2.5t10.5 0.5t9 -0.5t8 -0.5q4 -1 7.5 -2t6.5 -3q4 -1 7 -2.5t6 -3.5t5.5 -4t4.5 -5
l-11 -15l-1 -1l-1 -1q-1 -1 -2 -1h-3q-1 0 -2.5 0.5t-2.5 1.5t-2.5 2t-3.5 2t-4.5 2t-5.5 2t-6.5 1.5t-8.5 0.5t-9.5 -1t-8.5 -3t-7.5 -4.5t-6.5 -5.5q-3 -4 -5.5 -8t-3.5 -9q-2 -5 -3 -10.5t-1 -12.5q0 -6 1 -11.5t3 -10.5t4.5 -9.5t5.5 -7.5t6.5 -6t7.5 -4q4 -2 8.5 -3
t9.5 -1h4.5t5.5 1q2 0 4 0.5t4 0.5l4 2t3 2q2 1 3.5 2t3.5 3q1 1 1.5 1t1.5 1h1h2v0zM659 165q0 -9 -1.5 -17t-4.5 -15q-3 -8 -7 -14t-9 -11q-6 -6 -12 -10t-14 -7q-7 -3 -15.5 -4.5t-17.5 -1.5h-61v158h61q9 0 17.5 -1.5t15.5 -3.5q8 -3 14 -7.5t12 -9.5q5 -5 9 -11.5
t7 -13.5t4.5 -15t1.5 -16v0zM626 165q0 6 -1 11.5t-3 10.5q-1 5 -3.5 9t-5.5 8q-3 3 -7 5.5t-8 4.5t-9 3t-11 1h-28v-107h28q6 0 11 1t9 3t8 4.5t7 5.5q3 4 5.5 8t3.5 9q2 5 3 10.5t1 12.5v0z" />
  </g>

</svg>
