<?xml version="1.0" standalone="no"?>
<!DOCTYPE svg PUBLIC "-//W3C//DTD SVG 1.1//EN" "http://www.w3.org/Graphics/SVG/1.1/DTD/svg11.dtd" >
<svg xmlns="http://www.w3.org/2000/svg" xmlns:xlink="http://www.w3.org/1999/xlink" version="1.1" viewBox="-10 0 1042 1024">
  <g transform="matrix(1 0 0 -1 0 960)">
   <path fill="currentColor"
d="M512 2q92 0 174 35q81 35 141.5 95.5t95.5 141.5q35 82 35 174t-35 174q-35 81 -95.5 141.5t-141.5 95.5q-82 35 -174 35t-174 -35q-81 -35 -141.5 -95.5t-95.5 -141.5q-35 -82 -35 -174t35 -174q35 -81 95.5 -141.5t141.5 -95.5q82 -35 174 -35zM512 -62q-106 0 -199 40
t-162 109t-109 162t-40 199t40 199t109 162t162 109t199 40t199 -40t162 -109t109 -162t40 -199t-40 -199t-109 -162t-162 -109t-199 -40zM725 697l-296 -130q-15 -6 -26 -17.5t-18 -26.5l-130 -296q-3 -8 0 -16t11 -12q4 -2 8.5 -2t8.5 2l296 130q15 6 26.5 17.5t17.5 26.5
l130 296q3 8 0 16t-11 12q-4 2 -8.5 2t-8.5 -2v0zM455 404q-19 18 -19 44t19 44q18 19 44 19t45 -19q18 -18 18 -44t-18 -44q-19 -19 -45 -19t-44 19v0z" />
  </g>

</svg>
