<?xml version="1.0" standalone="no"?>
<!DOCTYPE svg PUBLIC "-//W3C//DTD SVG 1.1//EN" "http://www.w3.org/Graphics/SVG/1.1/DTD/svg11.dtd" >
<svg xmlns="http://www.w3.org/2000/svg" xmlns:xlink="http://www.w3.org/1999/xlink" version="1.1" viewBox="-10 0 1044 1024">
  <g transform="matrix(1 0 0 -1 0 960)">
   <path fill="#ffffff"
d="M750 666q0 25 -9 41.5t-28 16.5q-20 0 -29.5 -17.5t-11.5 -43.5h78v3zM569 731q0 28 -13.5 36t-29.5 8h-33v-88h32q19 0 31.5 10t12.5 34zM0 960v-1024h1024v1024h-1024v0zM862 627q-27 12 -41 27t-14 39q0 34 23 49.5t49 15.5q16 0 29.5 -2.5t24.5 -7.5l-8 -35
q-11 4 -22.5 6.5t-21.5 2.5q-12 0 -22 -6t-10 -21q0 -11 7 -17.5t27 -16.5q27 -12 42.5 -26.5t15.5 -42.5q0 -36 -23.5 -50.5t-50.5 -14.5q-15 0 -31.5 3t-30.5 8l8 37q14 -6 27.5 -9t26.5 -3q14 0 23 6t9 20q0 13 -8.5 21t-28.5 17v0zM714 758q41 0 58.5 -30.5t17.5 -80.5
v-18h-118q1 -32 16.5 -49t41.5 -17q10 0 19.5 1.5t18.5 5.5l5 -36q-8 -3 -20 -5t-26 -2q-48 0 -72.5 32.5t-24.5 82.5q0 49 21.5 82.5t62.5 33.5v0zM454 813h82q29 0 50.5 -17.5t21.5 -59.5q0 -25 -10 -42t-29 -24v-1q12 -4 18 -15t12 -37q5 -23 10 -44.5t10 -44.5h-42
q-4 16 -8.5 40.5t-7.5 38.5q-6 24 -14 33t-29 9h-25v-121h-39v285v0zM376 693h44v-44h-44v44zM302 813h40v-41h-40v41zM302 732h40v-204h-40v204zM90 813h40v-120h89v120h40v-285h-40v127h-89v-127h-40v285v0zM986 -26h-948v487q54 -28 110 -50q57 -21 116.5 -36t121.5 -23
q62 -7 126 -7t126 7q62 8 121.5 23t116.5 36q56 22 110 50v-487v0zM143 256l-62 -191h38l15 46h66l15 -46h38l-62 191h-48v0zM142 143l25 82l25 -82h-50v0zM393 126q0 -17 -9.5 -25t-24.5 -8q-14 0 -23.5 7.5t-9.5 25.5v130h-35v-135q0 -29 19.5 -44t49.5 -15q29 0 48.5 15
t19.5 44v135h-35v-130v0zM487 65h59q42 0 64.5 26t22.5 70t-22.5 69.5t-64.5 25.5h-59v-191v0zM523 224h18q29 0 42.5 -17.5t13.5 -46.5t-13.5 -46.5t-42.5 -17.5h-18v128zM687 256h35v-191h-35v191zM858 62q39 0 59.5 27.5t20.5 70.5t-20.5 71t-59.5 28t-60 -28t-21 -71
t21 -70.5t60 -27.5v0zM858 227q23 0 34 -19.5t11 -47.5t-10.5 -47.5t-34.5 -19.5q-23 0 -34.5 19.5t-11.5 47.5t11.5 47.5t34.5 19.5v0z" />
  </g>

</svg>
