<?xml version="1.0" standalone="no"?>
<!DOCTYPE svg PUBLIC "-//W3C//DTD SVG 1.1//EN" "http://www.w3.org/Graphics/SVG/1.1/DTD/svg11.dtd" >
<svg xmlns="http://www.w3.org/2000/svg" xmlns:xlink="http://www.w3.org/1999/xlink" version="1.1" viewBox="-10 0 1034 1024">
  <g transform="matrix(1 0 0 -1 0 960)">
   <path fill="currentColor"
d="M891 -64h-758q-13 0 -22 9t-9 22v758q0 13 9 22.5t22 9.5h758q13 0 22 -9.5t9 -22.5v-758q0 -13 -9 -22t-22 -9v0zM164 -1h696v695h-696v-695v0zM823 796h-622q-13 0 -22 9t-9 22t9 22t22 9h622q13 0 22 -9t9 -22t-9 -22t-22 -9zM755 897h-486q-13 0 -22.5 9.5t-9.5 22.5
t9.5 22t22.5 9h486q13 0 22.5 -9t9.5 -22t-9.5 -22.5t-22.5 -9.5zM512 100q-51 0 -96 20q-44 19 -77.5 52.5t-52.5 78.5q-20 44 -20 95t20 96q19 45 52.5 78t77.5 53q45 19 96 19t96 -19q44 -20 77.5 -53t53.5 -78q19 -45 19 -96t-19 -95q-20 -45 -53.5 -78.5t-77.5 -52.5
q-45 -20 -96 -20zM512 529q-76 0 -129.5 -53.5t-53.5 -129.5t53.5 -129.5t129.5 -53.5t129.5 53.5t53.5 129.5t-53.5 129.5t-129.5 53.5v0zM512 246q-41 0 -70.5 29.5t-29.5 70.5q0 42 29.5 71t70.5 29t70.5 -29t29.5 -71q0 -41 -29.5 -70.5t-70.5 -29.5zM512 384
q-16 0 -27 -11t-11 -27q0 -15 11.5 -26t26.5 -11q16 0 27 11t11 26q0 16 -11 27t-27 11z" />
  </g>

</svg>
