<?xml version="1.0" standalone="no"?>
<!DOCTYPE svg PUBLIC "-//W3C//DTD SVG 1.1//EN" "http://www.w3.org/Graphics/SVG/1.1/DTD/svg11.dtd" >
<svg xmlns="http://www.w3.org/2000/svg" xmlns:xlink="http://www.w3.org/1999/xlink" version="1.1" viewBox="-10 0 1043 1024">
  <g transform="matrix(1 0 0 -1 0 960)">
   <path fill="#ffffff"
d="M378 414v61q0 14 -10 23.5t-24 9.5h-136q-14 0 -24 -9.5t-10 -23.5v-61q0 -14 10 -23.5t24 -9.5h136q14 0 24 9.5t10 23.5zM444 381h136q14 0 24 9.5t10 23.5v61q0 14 -10 23.5t-24 9.5h-136q-14 0 -24 -9.5t-10 -23.5v-61q0 -14 10 -23.5t24 -9.5v0zM444 539h136
q14 0 24 9.5t10 23.5v61q0 14 -10 23.5t-24 9.5h-136q-14 0 -24 -9.5t-10 -23.5v-61q0 -14 10 -23.5t24 -9.5v0zM444 696h136q14 0 24 10t10 24v61q0 13 -10 23t-24 10h-136q-14 0 -24 -10t-10 -23v-61q0 -14 10 -24t24 -10v0zM816 508h-136q-14 0 -24 -9.5t-10 -23.5v-61
q0 -14 10 -23.5t24 -9.5h136q14 0 24 9.5t10 23.5v61q0 14 -10 23.5t-24 9.5v0zM816 666h-136q-14 0 -24 -9.5t-10 -23.5v-61q0 -14 10 -23.5t24 -9.5h136q14 0 24 9.5t10 23.5v61q0 14 -10 23.5t-24 9.5v0zM793 960h-562q-48 0 -89 -18q-42 -18 -73.5 -49.5t-49.5 -73.5
t-18 -89v-564q0 -47 18 -89t49.5 -73.5t73.5 -49.5q41 -18 89 -18h562q48 0 90 18q41 18 72.5 49.5t49.5 73.5t18 89v564q0 47 -18 89t-49.5 73.5t-72.5 49.5q-42 18 -90 18v0zM960 166q0 -69 -49 -118t-118 -49h-562q-69 0 -118 49t-49 118v564q0 69 49 118t118 49h562
q69 0 118 -49t49 -118v-564zM414 296h-2t-1 -1q-1 0 -2 -0.5t-2 -1.5q0 -1 -1 -1.5t-1 -2.5l-59 -112q-2 -3 -3 -5.5t-2 -5.5q-2 -3 -3 -6l-2 -6l-2 6l-2 6q-2 2 -3 5t-3 5l-59 113q-1 2 -1.5 2.5l-1.5 1.5q0 1 -1 1.5t-2 0.5q-1 1 -1.5 1h-2.5h-2h-3h-33v-212h39v130v4.5
v4.5q-1 2 -1 4.5v5.5l61 -116q1 -2 2.5 -3.5l3.5 -3.5q2 -1 4 -1.5t5 -0.5h6q5 0 9 2.5t6 6.5l61 116q0 -3 -0.5 -5.5t-0.5 -4.5v-4.5v-4.5v-130h39v212h-34h-2.5h-2.5v0zM632 277q-5 4 -11.5 8t-14.5 6q-8 3 -17.5 4t-20.5 1h-71v-212h44v73h27q11 0 20 1.5t17 3.5
q8 3 14.5 6.5t11.5 8.5q6 4 9.5 10t6.5 12q2 7 3.5 14t1.5 15q0 7 -1 14t-4 13q-2 6 -6 11.5t-9 10.5v0zM599 201q-5 -5 -12.5 -7.5t-18.5 -2.5h-27v72h27q6 0 10 -0.5t8 -2.5q4 -1 7 -2.5t5 -4.5q3 -2 4.5 -5t3.5 -6q1 -3 1.5 -6.5t0.5 -7.5q0 -9 -2.5 -15.5t-6.5 -11.5v0z
M778 196q4 2 7.5 3.5t6.5 3.5t5.5 4.5t4.5 5.5q2 2 3.5 5.5t2.5 7.5t1.5 8.5t0.5 9.5t-1 10.5t-3 10.5t-5.5 9.5t-7.5 7.5q-4 4 -9 7t-11 5t-13 3.5t-14 1.5q-8 0 -14.5 -1t-12.5 -3t-11.5 -5t-10.5 -7t-9 -9t-7 -10q-3 -6 -5.5 -13t-3.5 -15l21 -3q5 -1 8 -1t5 2q2 1 4 3.5
t3 5.5t2 5l2 4l3.5 3.5l3.5 3.5q2 1 4 2.5t5 1.5q2 1 4.5 1.5t5.5 0.5q7 0 12 -1.5t9 -5.5t5.5 -9t1.5 -12q0 -4 -0.5 -7t-1.5 -5q-1 -3 -2.5 -5.5t-3.5 -4.5q-3 -2 -6 -3.5t-8 -2.5q-4 -1 -9.5 -1.5t-11.5 -0.5v-29q8 0 14 -0.5t11 -1.5q4 -1 7.5 -2.5t6.5 -3.5
q2 -3 3.5 -5.5t2.5 -5.5q1 -2 1 -5.5v-7.5q0 -3 -0.5 -5.5t-1.5 -5.5t-2.5 -5.5t-3.5 -4.5t-5 -4t-6 -3q-3 -2 -6.5 -2.5t-7.5 -0.5t-7 0.5t-5 1.5q-3 1 -5.5 2t-4.5 3t-3.5 4t-3.5 4q-2 3 -3.5 5.5t-2.5 5.5q-2 2 -4 3.5t-5 2.5t-6 0.5t-7 -2.5l-18 -7q3 -7 5.5 -13
t5.5 -12q4 -5 7.5 -9.5t8.5 -7.5q4 -4 9.5 -6.5t11.5 -4.5t12.5 -2.5t14.5 -0.5q7 0 14 1t14 3t12.5 5t10.5 7t9 9.5t7 11.5t4.5 13t1.5 16q0 18 -9 30t-27 18v0z" />
  </g>

</svg>
