<?xml version="1.0" standalone="no"?>
<!DOCTYPE svg PUBLIC "-//W3C//DTD SVG 1.1//EN" "http://www.w3.org/Graphics/SVG/1.1/DTD/svg11.dtd" >
<svg xmlns="http://www.w3.org/2000/svg" xmlns:xlink="http://www.w3.org/1999/xlink" version="1.1" viewBox="-10 0 1034 1024">
  <g transform="matrix(1 0 0 -1 0 960)">
   <path fill="currentColor"
d="M560 854h-393q-32 0 -55 -23.5t-23 -55.5v-624q0 -33 23 -56t55 -23h393q16 0 30 6t24 16t16 25t6 29v627q0 32 -23 55.5t-53 23.5v0zM581 151q0 -8 -6.5 -15t-14.5 -7h-393q-8 0 -14.5 7t-6.5 15v624q0 8 5.5 15t15.5 7h393q8 0 14.5 -7t6.5 -15v-624zM364 737v0
q-66 0 -112 -46.5t-46 -111.5q0 -31 11.5 -60t34.5 -52q22 -22 50.5 -34t61.5 -12v0q65 0 111.5 46t46.5 112q0 32 -12 60.5t-35 50.5q-22 23 -51.5 35t-59.5 12v0zM364 478q-43 0 -72 30t-29 71t30 70.5t71 29.5q42 0 71 -29.5t29 -70.5t-30 -71t-70 -30zM364 633
q-23 0 -39 -16t-16 -38q0 -23 16 -39t39 -16q22 0 38 16t16 39q0 22 -16 38t-38 16zM810 -50q4 -4 9.5 -6.5t9.5 -2.5q13 0 20.5 8.5t7.5 19.5v452h24q22 0 38 16t16 38v210q0 35 -20.5 62.5t-55.5 35.5h-2v144q0 6 -2.5 10.5t-6.5 8.5t-9.5 6.5t-9.5 2.5v0q-6 0 -10.5 -2.5
t-8.5 -6.5t-6 -9.5t-2 -9.5v-144h-3q-32 -10 -54 -38t-22 -63v-209q0 -23 16 -39t39 -16h24v-452q0 -2 2 -7t6 -9v0zM780 685q0 20 14 33t33 13h5q20 0 33 -14t13 -32v-19h-98v19zM780 478v142h98v-142h-98zM459 200h-180q-12 0 -19.5 8.5t-7.5 18.5v0q0 13 8.5 20.5
t18.5 7.5h180q12 0 19.5 -8.5t7.5 -19.5v0q0 -10 -7.5 -18.5t-19.5 -8.5z" />
  </g>

</svg>
