<?xml version="1.0" standalone="no"?>
<!DOCTYPE svg PUBLIC "-//W3C//DTD SVG 1.1//EN" "http://www.w3.org/Graphics/SVG/1.1/DTD/svg11.dtd" >
<svg xmlns="http://www.w3.org/2000/svg" xmlns:xlink="http://www.w3.org/1999/xlink" version="1.1" viewBox="-10 0 1034 1024">
  <g transform="matrix(1 0 0 -1 0 960)">
   <path fill="#f8f8f8"
d="M732 609q-13 0 -22.5 -9.5t-9.5 -23.5v-220q0 -13 9.5 -22.5t22.5 -9.5q14 0 23 9.5t9 22.5v220q0 14 -9 23.5t-23 9.5zM842 792q-13 0 -22.5 -9.5t-9.5 -22.5v-624q0 -13 9.5 -22.5t22.5 -9.5q14 0 23 9.5t9 22.5v624q0 13 -9 22.5t-23 9.5zM512 645q-13 0 -22.5 -9.5
t-9.5 -22.5v-330q0 -13 9.5 -22.5t22.5 -9.5t22.5 9.5t9.5 22.5v330q0 13 -9.5 22.5t-22.5 9.5zM622 719q-13 0 -22.5 -9.5t-9.5 -22.5v-478q0 -13 9.5 -22.5t22.5 -9.5t22.5 9.5t9.5 22.5v478q0 13 -9.5 22.5t-22.5 9.5zM402 829q-13 0 -22.5 -9.5t-9.5 -22.5v-698
q0 -13 9.5 -22.5t22.5 -9.5t22.5 9.5t9.5 22.5v698q0 13 -9.5 22.5t-22.5 9.5zM292 682q-14 0 -23 -9.5t-9 -22.5v-404q0 -13 9 -22.5t23 -9.5q13 0 22.5 9.5t9.5 22.5v404q0 13 -9.5 22.5t-22.5 9.5v0zM182 572q-14 0 -23 -9.5t-9 -22.5v-184q0 -13 9 -22.5t23 -9.5
q13 0 22.5 9.5t9.5 22.5v184q0 13 -9.5 22.5t-22.5 9.5v0z" />
  </g>

</svg>
